<svg width="257" height="227" viewBox="0 0 257 227" fill="none" xmlns="http://www.w3.org/2000/svg">
<g clip-path="url(#clip0_301_21845)">
<path d="M83.8296 104.813L84.6296 105.623C85.4302 106.425 86.381 107.061 87.4277 107.495C88.4744 107.929 89.5964 108.153 90.7296 108.153C91.7521 108.154 92.7672 107.979 93.7296 107.633L101.4 104.813H83.8296Z" fill="#FCB17E"/>
<path d="M106.85 196.613C106.85 196.613 100.91 209.693 91.0599 211.953C83.9799 213.573 82.8999 221.713 82.8999 221.713L104.85 218.863L109.58 214.863L113.27 198.433L106.85 196.613Z" fill="#FEB98A"/>
<path d="M109.58 214.873L107.77 222.943H78.24C78.07 217.383 79.76 215.293 84.59 213.663C87.6738 212.514 90.5976 210.975 93.2901 209.083C93.6426 208.828 94.0577 208.674 94.491 208.637C94.9243 208.6 95.3595 208.682 95.7501 208.873C98.5401 210.193 95.7501 214.353 95.7501 214.353L109.58 214.873Z" fill="#991B1B"/>
<path d="M111.4 100.323L99.5796 206.133L113.17 208.623L140.63 103.683L111.4 100.323Z" fill="#27272A"/>
<path d="M167.86 220.823C168.13 214.753 176.58 209.023 176.58 209.023L178.06 193.903L185.92 189.203L194.68 204.083L167.86 220.823Z" fill="#FEB98A"/>
<path d="M129.69 97.613L140.5 154.693L175.5 198.433L188.25 192.083C188.25 192.083 172.71 158.283 161.94 148.333L158.07 100.873L129.69 97.613Z" fill="#52525B"/>
<path d="M190.07 195.743L194.68 204.153L185.33 217.913L163.96 226.133V220.883C164.23 214.813 176.05 208.883 176.05 208.883L176.65 203.723C176.65 203.723 180.55 199.903 182.36 203.573L184.17 207.253L190.07 195.743Z" fill="#991B1B"/>
<path d="M118.59 43.293L104.14 72.993H118.88L126.06 45.823L118.59 43.293Z" fill="#B91C1C"/>
<path d="M124.61 38.703L130.04 37.063H142.7L151.25 40.133C154.241 41.2071 156.804 43.2203 158.556 45.8717C160.308 48.5232 161.155 51.6704 160.97 54.843L158.11 103.683H111.04L116.98 47.933C117.203 45.8147 118.046 43.8092 119.403 42.1674C120.76 40.5257 122.572 39.3206 124.61 38.703Z" fill="#DC2626"/>
<path d="M98.7198 70.693H66.5898V106.073H98.7198V70.693Z" fill="#FFD4A7"/>
<path d="M130.86 70.693H95.48V106.073H130.86V70.693Z" fill="#DCA270"/>
<path d="M85.1199 70.693H79.6299V106.073H85.1199V70.693Z" fill="#BD8A5A"/>
<path d="M97.5298 64.593H62.3198V72.993H97.5298V64.593Z" fill="#FFC28A"/>
<path d="M132.73 64.593H93.9697V72.993H132.73V64.593Z" fill="#BF733A"/>
<path d="M80.76 64.593H75.27V72.993H80.76V64.593Z" fill="#D19D74"/>
<path d="M122.92 105.793L114.4 102.793C114.128 102.698 113.832 102.698 113.56 102.793C113.332 102.872 113.13 103.014 112.979 103.202C112.827 103.39 112.732 103.616 112.702 103.856C112.673 104.095 112.712 104.338 112.814 104.557C112.916 104.776 113.077 104.961 113.28 105.093L114.75 106.043H106.91L111.62 108.653C113.779 109.853 116.209 110.483 118.68 110.483H129.68L130.84 107.483L125.35 104.873L122.92 105.793Z" fill="#FCB17E"/>
<path d="M147.13 49.573L146.44 72.623C146.358 75.3177 145.4 77.9123 143.71 80.013L122.92 105.793L129.69 110.513L155.89 83.253C157.89 81.1738 159.1 78.4605 159.31 75.583L161.03 51.843C161.112 50.8029 160.982 49.757 160.649 48.7682C160.316 47.7794 159.787 46.8681 159.093 46.0891C158.399 45.31 157.554 44.6794 156.611 44.235C155.667 43.7906 154.643 43.5416 153.6 43.503C152.775 43.4696 151.951 43.6008 151.177 43.889C150.403 44.1772 149.695 44.6167 149.092 45.1817C148.49 45.7467 148.007 46.426 147.67 47.18C147.333 47.9339 147.149 48.7474 147.13 49.573Z" fill="#EF4444"/>
<path d="M122.8 18.903C122.8 18.903 119.63 15.413 118.98 18.903C118.33 22.393 121.39 25.023 123.26 23.413L122.8 18.903Z" fill="#FEB98A"/>
<path d="M129.68 22.813V39.693C129.68 39.693 137.82 44.803 142.41 38.143L139.23 21.503L129.68 22.813Z" fill="#FCB17E"/>
<path d="M139.05 4.67301C129.29 -0.0169873 121.14 5.85301 120.74 19.673C120.58 25.373 125.04 32.573 132.43 31.673C144.69 30.123 145.64 13.403 143.03 8.17301C142.11 6.61198 140.716 5.38568 139.05 4.67301Z" fill="#FEB98A"/>
<path d="M132.25 18.433C132.846 18.433 133.33 17.9495 133.33 17.353C133.33 16.7565 132.846 16.273 132.25 16.273C131.653 16.273 131.17 16.7565 131.17 17.353C131.17 17.9495 131.653 18.433 132.25 18.433Z" fill="#231F20"/>
<path d="M125.23 18.003C125.826 18.003 126.31 17.5195 126.31 16.923C126.31 16.3265 125.826 15.843 125.23 15.843C124.633 15.843 124.15 16.3265 124.15 16.923C124.15 17.5195 124.633 18.003 125.23 18.003Z" fill="#231F20"/>
<path d="M127.89 22.073C127.651 21.9827 127.436 21.8381 127.263 21.6507C127.089 21.4633 126.961 21.2381 126.89 20.993C126.53 19.693 127.78 17.993 127.83 17.893L128.15 18.123C128.15 18.123 126.96 19.773 127.27 20.893C127.33 21.0828 127.433 21.2559 127.572 21.3983C127.711 21.5408 127.881 21.6486 128.07 21.713L127.89 22.073Z" fill="#231F20"/>
<path d="M128.67 25.253C128.334 25.2585 127.998 25.2249 127.67 25.153C127.062 25.0346 126.485 24.7968 125.97 24.4535C125.455 24.1102 125.013 23.6682 124.67 23.153L125.01 22.953C125.63 23.906 126.6 24.5774 127.71 24.823C129.3 25.153 131.11 24.573 133.1 23.093L133.33 23.413C132.008 24.4992 130.378 25.1428 128.67 25.253Z" fill="#231F20"/>
<path d="M126.99 4.23299C126.99 4.23299 125.29 12.503 142.29 20.123V23.003L144.64 22.223C144.64 22.223 152.5 4.11299 133.3 2.50299C133.3 2.50299 129.35 2.01299 126.99 4.23299Z" fill="#301C25"/>
<path d="M141.22 19.503C141.22 19.503 144.39 16.013 145.03 19.503C145.67 22.993 142.63 25.623 140.76 24.023L141.22 19.503Z" fill="#FEB98A"/>
<path d="M127.96 4.70301C127.96 4.70301 124.2 8.87301 120.8 18.433L119.98 17.433C119.98 17.433 118.79 6.50301 127.5 3.83301L127.96 4.70301Z" fill="#301C25"/>
<path d="M135.08 0.982999C128.79 0.192999 123.08 3.513 121.28 8.633L110.35 8.253C110.101 8.25175 109.861 8.34327 109.676 8.50969C109.491 8.67611 109.375 8.90548 109.35 9.153C109.335 9.40715 109.418 9.65726 109.582 9.85237C109.745 10.0475 109.977 10.1729 110.23 10.203L146.5 13.933C147.3 7.683 142.18 1.883 135.08 0.982999Z" fill="#DC2626"/>
</g>
<defs>
<clipPath id="clip0_301_21845">
<rect width="149" height="225.266" fill="white" transform="translate(54 0.866974)"/>
</clipPath>
</defs>
</svg>
